STARTFONT 2.1
FONT default43301
SIZE 16 75 75
FONTBOUNDINGBOX 8 16 0 -4
STARTPROPERTIES 11
POINT_SIZE 160
FONT "default43301"
WEIGHT 10
RESOLUTION 103
RESOLUTION_X 75
RESOLUTION_Y 75
X_HEIGHT -1
QUAD_WIDTH 8
DEFAULT_CHAR 0
FONT_ASCENT 12
FONT_DESCENT 4
ENDPROPERTIES
CHARS 256
STARTCHAR C000
ENCODING 0
SWIDTH 480 0
DWIDTH 9 0
BBX 9 16 0 -4
BITMAP
0000
0000
0000
c300
e700
7e00
7e00
7e00
3c00
3c00
1800
0000
0000
0000
0000
0000
ENDCHAR
STARTCHAR C001
ENCODING 1
SWIDTH 480 0
DWIDTH 9 0
BBX 9 16 0 -4
BITMAP
0000
0000
0000
1000
3800
7c00
fe00
7c00
3800
1000
0000
0000
0000
0000
0000
0000
ENDCHAR
STARTCHAR C002
ENCODING 2
SWIDTH 480 0
DWIDTH 9 0
BBX 9 16 0 -4
BITMAP
0000
aa00
0000
5500
0000
aa00
0000
5500
0000
aa00
0000
5500
0000
aa00
0000
5500
ENDCHAR
STARTCHAR C003
ENCODING 3
SWIDTH 480 0
DWIDTH 9 0
BBX 9 16 0 -4
BITMAP
0000
0000
0000
0000
0000
0000
0000
0000
0000
0000
0000
0000
0000
0000
0000
0000
ENDCHAR
STARTCHAR C004
ENCODING 4
SWIDTH 480 0
DWIDTH 9 0
BBX 9 16 0 -4
BITMAP
0000
0000
0000
0000
0000
0000
0000
0000
0000
0000
0000
0000
0000
0000
0000
0000
ENDCHAR
STARTCHAR C005
ENCODING 5
SWIDTH 480 0
DWIDTH 9 0
BBX 9 16 0 -4
BITMAP
0000
0000
0000
0000
0000
0000
0000
0000
0000
0000
0000
0000
0000
0000
0000
0000
ENDCHAR
STARTCHAR C006
ENCODING 6
SWIDTH 480 0
DWIDTH 9 0
BBX 9 16 0 -4
BITMAP
0000
0000
0000
0000
0000
0000
0000
0000
0000
0000
0000
0000
0000
0000
0000
0000
ENDCHAR
STARTCHAR C007
ENCODING 7
SWIDTH 480 0
DWIDTH 9 0
BBX 9 16 0 -4
BITMAP
0000
0000
0000
0000
0000
0000
0000
0000
0000
0000
0000
0000
0000
0000
0000
0000
ENDCHAR
STARTCHAR C008
ENCODING 8
SWIDTH 480 0
DWIDTH 9 0
BBX 9 16 0 -4
BITMAP
0000
0000
0000
0000
0000
0000
0000
0000
0000
0000
0000
0000
0000
0000
0000
0000
ENDCHAR
STARTCHAR C009
ENCODING 9
SWIDTH 480 0
DWIDTH 9 0
BBX 9 16 0 -4
BITMAP
0000
0000
7000
d800
d800
7000
0000
0000
0000
0000
0000
0000
0000
0000
0000
0000
ENDCHAR
STARTCHAR C00a
ENCODING 10
SWIDTH 480 0
DWIDTH 9 0
BBX 9 16 0 -4
BITMAP
0000
0000
0000
1800
1800
7e00
1800
1800
0000
0000
0000
ff00
0000
0000
0000
0000
ENDCHAR
STARTCHAR C00b
ENCODING 11
SWIDTH 480 0
DWIDTH 9 0
BBX 9 16 0 -4
BITMAP
1800
1800
1800
1800
1800
1800
1800
f800
0000
0000
0000
0000
0000
0000
0000
0000
ENDCHAR
STARTCHAR C00c
ENCODING 12
SWIDTH 480 0
DWIDTH 9 0
BBX 9 16 0 -4
BITMAP
0000
0000
0000
0000
0000
0000
0000
f800
1800
1800
1800
1800
1800
1800
1800
1800
ENDCHAR
STARTCHAR C00d
ENCODING 13
SWIDTH 480 0
DWIDTH 9 0
BBX 9 16 0 -4
BITMAP
0000
0000
0000
0000
0000
0000
0000
1f00
1800
1800
1800
1800
1800
1800
1800
1800
ENDCHAR
STARTCHAR C00e
ENCODING 14
SWIDTH 480 0
DWIDTH 9 0
BBX 9 16 0 -4
BITMAP
1800
1800
1800
1800
1800
1800
1800
1f00
0000
0000
0000
0000
0000
0000
0000
0000
ENDCHAR
STARTCHAR C00f
ENCODING 15
SWIDTH 480 0
DWIDTH 9 0
BBX 9 16 0 -4
BITMAP
1800
1800
1800
1800
1800
1800
1800
ff00
1800
1800
1800
1800
1800
1800
1800
1800
ENDCHAR
STARTCHAR C010
ENCODING 16
SWIDTH 480 0
DWIDTH 9 0
BBX 9 16 0 -4
BITMAP
0000
0000
0000
0000
0000
0000
0000
0000
0000
0000
0000
0000
0000
0000
0000
0000
ENDCHAR
STARTCHAR C011
ENCODING 17
SWIDTH 480 0
DWIDTH 9 0
BBX 9 16 0 -4
BITMAP
0000
0000
0000
0000
0000
0000
0000
0000
0000
0000
0000
0000
0000
0000
0000
0000
ENDCHAR
STARTCHAR C012
ENCODING 18
SWIDTH 480 0
DWIDTH 9 0
BBX 9 16 0 -4
BITMAP
0000
0000
0000
0000
0000
0000
0000
ff00
0000
0000
0000
0000
0000
0000
0000
0000
ENDCHAR
STARTCHAR C013
ENCODING 19
SWIDTH 480 0
DWIDTH 9 0
BBX 9 16 0 -4
BITMAP
0000
0000
0000
0000
0000
0000
0000
0000
0000
0000
0000
0000
0000
0000
0000
0000
ENDCHAR
STARTCHAR C014
ENCODING 20
SWIDTH 480 0
DWIDTH 9 0
BBX 9 16 0 -4
BITMAP
0000
0000
0000
0000
0000
0000
0000
0000
0000
0000
0000
0000
0000
0000
0000
0000
ENDCHAR
STARTCHAR C015
ENCODING 21
SWIDTH 480 0
DWIDTH 9 0
BBX 9 16 0 -4
BITMAP
1800
1800
1800
1800
1800
1800
1800
1f00
1800
1800
1800
1800
1800
1800
1800
1800
ENDCHAR
STARTCHAR C016
ENCODING 22
SWIDTH 480 0
DWIDTH 9 0
BBX 9 16 0 -4
BITMAP
1800
1800
1800
1800
1800
1800
1800
f800
1800
1800
1800
1800
1800
1800
1800
1800
ENDCHAR
STARTCHAR C017
ENCODING 23
SWIDTH 480 0
DWIDTH 9 0
BBX 9 16 0 -4
BITMAP
1800
1800
1800
1800
1800
1800
1800
ff00
0000
0000
0000
0000
0000
0000
0000
0000
ENDCHAR
STARTCHAR C018
ENCODING 24
SWIDTH 480 0
DWIDTH 9 0
BBX 9 16 0 -4
BITMAP
0000
0000
0000
0000
0000
0000
0000
ff00
1800
1800
1800
1800
1800
1800
1800
1800
ENDCHAR
STARTCHAR C019
ENCODING 25
SWIDTH 480 0
DWIDTH 9 0
BBX 9 16 0 -4
BITMAP
1800
1800
1800
1800
1800
1800
1800
1800
1800
1800
1800
1800
1800
1800
1800
1800
ENDCHAR
STARTCHAR C01a
ENCODING 26
SWIDTH 480 0
DWIDTH 9 0
BBX 9 16 0 -4
BITMAP
0000
0000
0000
0000
0000
0000
0000
0000
0000
0000
0000
0000
0000
0000
0000
0000
ENDCHAR
STARTCHAR C01b
ENCODING 27
SWIDTH 480 0
DWIDTH 9 0
BBX 9 16 0 -4
BITMAP
0000
0000
0000
0000
0000
0000
0000
0000
0000
0000
0000
0000
0000
0000
0000
0000
ENDCHAR
STARTCHAR C01c
ENCODING 28
SWIDTH 480 0
DWIDTH 9 0
BBX 9 16 0 -4
BITMAP
0000
0000
0000
0000
0000
0000
0000
0000
0000
0000
0000
0000
0000
0000
0000
0000
ENDCHAR
STARTCHAR C01d
ENCODING 29
SWIDTH 480 0
DWIDTH 9 0
BBX 9 16 0 -4
BITMAP
0000
0000
0000
0000
0000
0000
0000
0000
0000
0000
0000
0000
0000
0000
0000
0000
ENDCHAR
STARTCHAR C01e
ENCODING 30
SWIDTH 480 0
DWIDTH 9 0
BBX 9 16 0 -4
BITMAP
0000
0000
0000
0000
0000
0000
0000
0000
0000
0000
0000
0000
0000
0000
0000
0000
ENDCHAR
STARTCHAR C01f
ENCODING 31
SWIDTH 480 0
DWIDTH 9 0
BBX 9 16 0 -4
BITMAP
0000
0000
0000
0000
0000
0000
0000
1800
1800
0000
0000
0000
0000
0000
0000
0000
ENDCHAR
STARTCHAR C020
ENCODING 32
SWIDTH 480 0
DWIDTH 9 0
BBX 9 16 0 -4
BITMAP
0000
0000
0000
0000
0000
0000
0000
0000
0000
0000
0000
0000
0000
0000
0000
0000
ENDCHAR
STARTCHAR C021
ENCODING 33
SWIDTH 480 0
DWIDTH 9 0
BBX 9 16 0 -4
BITMAP
0000
0000
0c00
0c00
0c00
1c00
1800
1800
1800
0000
3000
3000
0000
0000
0000
0000
ENDCHAR
STARTCHAR C022
ENCODING 34
SWIDTH 480 0
DWIDTH 9 0
BBX 9 16 0 -4
BITMAP
0000
6600
6600
6600
6600
2400
0000
0000
0000
0000
0000
0000
0000
0000
0000
0000
ENDCHAR
STARTCHAR C023
ENCODING 35
SWIDTH 480 0
DWIDTH 9 0
BBX 9 16 0 -4
BITMAP
0000
0000
0000
3600
3600
3700
3e00
7600
3700
3e00
7600
3600
3600
0000
0000
0000
ENDCHAR
STARTCHAR C024
ENCODING 36
SWIDTH 480 0
DWIDTH 9 0
BBX 9 16 0 -4
BITMAP
0000
0000
1800
1800
7c00
d600
d000
7800
3c00
1600
d600
7c00
1800
1800
0000
0000
ENDCHAR
STARTCHAR C025
ENCODING 37
SWIDTH 480 0
DWIDTH 9 0
BBX 9 16 0 -4
BITMAP
0000
0000
0000
0000
0000
6300
6600
0c00
1800
3000
6600
c600
0000
0000
0000
0000
ENDCHAR
STARTCHAR C026
ENCODING 38
SWIDTH 480 0
DWIDTH 9 0
BBX 9 16 0 -4
BITMAP
0000
0000
1c00
3600
1c00
1800
3b00
3f00
6600
6600
6600
3b00
0000
0000
0000
0000
ENDCHAR
STARTCHAR C027
ENCODING 39
SWIDTH 480 0
DWIDTH 9 0
BBX 9 16 0 -4
BITMAP
0000
1800
1800
1800
3000
0000
0000
0000
0000
0000
0000
0000
0000
0000
0000
0000
ENDCHAR
STARTCHAR C028
ENCODING 40
SWIDTH 480 0
DWIDTH 9 0
BBX 9 16 0 -4
BITMAP
0000
0000
1e00
3800
7000
7000
7000
7000
7000
7000
3800
1e00
0000
0000
0000
0000
ENDCHAR
STARTCHAR C029
ENCODING 41
SWIDTH 480 0
DWIDTH 9 0
BBX 9 16 0 -4
BITMAP
0000
0000
7800
1c00
0e00
0e00
0e00
0e00
0e00
0e00
1c00
7800
0000
0000
0000
0000
ENDCHAR
STARTCHAR C02a
ENCODING 42
SWIDTH 480 0
DWIDTH 9 0
BBX 9 16 0 -4
BITMAP
0000
0000
0000
0000
0800
2a00
1c00
7f00
1c00
2a00
0800
0000
0000
0000
0000
0000
ENDCHAR
STARTCHAR C02b
ENCODING 43
SWIDTH 480 0
DWIDTH 9 0
BBX 9 16 0 -4
BITMAP
0000
0000
0000
0000
0000
1800
1800
7e00
1800
1800
0000
0000
0000
0000
0000
0000
ENDCHAR
STARTCHAR C02c
ENCODING 44
SWIDTH 480 0
DWIDTH 9 0
BBX 9 16 0 -4
BITMAP
0000
0000
0000
0000
0000
0000
0000
0000
0000
0000
1800
1800
1800
3000
0000
0000
ENDCHAR
STARTCHAR C02d
ENCODING 45
SWIDTH 480 0
DWIDTH 9 0
BBX 9 16 0 -4
BITMAP
0000
0000
0000
0000
0000
0000
0100
ff00
8000
0000
0000
0000
0000
0000
0000
0000
ENDCHAR
STARTCHAR C02e
ENCODING 46
SWIDTH 480 0
DWIDTH 9 0
BBX 9 16 0 -4
BITMAP
0000
0000
0000
0000
0000
0000
0000
0000
0000
0000
1800
1800
0000
0000
0000
0000
ENDCHAR
STARTCHAR C02f
ENCODING 47
SWIDTH 480 0
DWIDTH 9 0
BBX 9 16 0 -4
BITMAP
0000
0000
0000
0100
0300
0600
0c00
1800
3000
6000
c000
8000
0000
0000
0000
0000
ENDCHAR
STARTCHAR C030
ENCODING 48
SWIDTH 480 0
DWIDTH 9 0
BBX 9 16 0 -4
BITMAP
0000
0000
3e00
6300
6300
6700
6f00
7b00
7300
6300
6300
3e00
0000
0000
0000
0000
ENDCHAR
STARTCHAR C031
ENCODING 49
SWIDTH 480 0
DWIDTH 9 0
BBX 9 16 0 -4
BITMAP
0000
0000
0c00
3c00
0c00
0c00
0c00
0c00
0c00
0c00
0c00
0c00
0000
0000
0000
0000
ENDCHAR
STARTCHAR C032
ENCODING 50
SWIDTH 480 0
DWIDTH 9 0
BBX 9 16 0 -4
BITMAP
0000
0000
3e00
6300
0300
0300
0600
0c00
1800
3000
6000
7f00
0000
0000
0000
0000
ENDCHAR
STARTCHAR C033
ENCODING 51
SWIDTH 480 0
DWIDTH 9 0
BBX 9 16 0 -4
BITMAP
0000
0000
7f00
0300
0600
0c00
1800
1e00
0300
0300
6600
3c00
0000
0000
0000
0000
ENDCHAR
STARTCHAR C034
ENCODING 52
SWIDTH 480 0
DWIDTH 9 0
BBX 9 16 0 -4
BITMAP
0000
0000
6600
6600
6600
6600
6600
6600
7e00
0600
0600
0600
0000
0000
0000
0000
ENDCHAR
STARTCHAR C035
ENCODING 53
SWIDTH 480 0
DWIDTH 9 0
BBX 9 16 0 -4
BITMAP
0000
0000
7e00
6000
6000
6000
7c00
0600
0300
0300
6600
3c00
0000
0000
0000
0000
ENDCHAR
STARTCHAR C036
ENCODING 54
SWIDTH 480 0
DWIDTH 9 0
BBX 9 16 0 -4
BITMAP
0000
0000
0e00
1800
3000
6000
6e00
7300
6300
6600
6c00
3800
0000
0000
0000
0000
ENDCHAR
STARTCHAR C037
ENCODING 55
SWIDTH 480 0
DWIDTH 9 0
BBX 9 16 0 -4
BITMAP
0000
0000
7f00
0300
0300
0600
0600
0c00
0c00
1800
1800
1800
0000
0000
0000
0000
ENDCHAR
STARTCHAR C038
ENCODING 56
SWIDTH 480 0
DWIDTH 9 0
BBX 9 16 0 -4
BITMAP
0000
0000
3e00
6300
6300
6300
3e00
6300
6300
6300
6300
3e00
0000
0000
0000
0000
ENDCHAR
STARTCHAR C039
ENCODING 57
SWIDTH 480 0
DWIDTH 9 0
BBX 9 16 0 -4
BITMAP
0000
0000
0e00
1b00
3300
6300
6700
3b00
0300
0600
0c00
3800
0000
0000
0000
0000
ENDCHAR
STARTCHAR C03a
ENCODING 58
SWIDTH 480 0
DWIDTH 9 0
BBX 9 16 0 -4
BITMAP
0000
0000
0000
0000
0000
1800
1800
0000
0000
1800
1800
0000
0000
0000
0000
0000
ENDCHAR
STARTCHAR C03b
ENCODING 59
SWIDTH 480 0
DWIDTH 9 0
BBX 9 16 0 -4
BITMAP
0000
0000
0000
0000
0000
1800
1800
0000
0000
1800
1800
1800
3000
0000
0000
0000
ENDCHAR
STARTCHAR C03c
ENCODING 60
SWIDTH 480 0
DWIDTH 9 0
BBX 9 16 0 -4
BITMAP
0000
0000
0000
0600
0c00
1800
3000
6000
3000
1800
0c00
0600
0000
0000
0000
0000
ENDCHAR
STARTCHAR C03d
ENCODING 61
SWIDTH 480 0
DWIDTH 9 0
BBX 9 16 0 -4
BITMAP
0000
0000
0000
0000
0000
0000
ff00
0000
ff00
0000
0000
0000
0000
0000
0000
0000
ENDCHAR
STARTCHAR C03e
ENCODING 62
SWIDTH 480 0
DWIDTH 9 0
BBX 9 16 0 -4
BITMAP
0000
0000
0000
6000
3000
1800
0c00
0600
0c00
1800
3000
6000
0000
0000
0000
0000
ENDCHAR
STARTCHAR C03f
ENCODING 63
SWIDTH 480 0
DWIDTH 9 0
BBX 9 16 0 -4
BITMAP
0000
0000
3e00
6300
0300
0600
0c00
1800
1800
1800
0000
1800
1800
0000
0000
0000
ENDCHAR
STARTCHAR C040
ENCODING 64
SWIDTH 480 0
DWIDTH 9 0
BBX 9 16 0 -4
BITMAP
0000
0000
7c00
c600
c600
c600
de00
de00
de00
cc00
e000
7e00
0000
0000
0000
0000
ENDCHAR
STARTCHAR C041
ENCODING 65
SWIDTH 480 0
DWIDTH 9 0
BBX 9 16 0 -4
BITMAP
0000
0000
1e00
3300
6300
6300
6300
7f00
6300
6300
6300
6300
0000
0000
0000
0000
ENDCHAR
STARTCHAR C042
ENCODING 66
SWIDTH 480 0
DWIDTH 9 0
BBX 9 16 0 -4
BITMAP
0000
0000
3c00
6600
6600
6c00
7800
6600
6600
6600
6c00
3800
0000
0000
0000
0000
ENDCHAR
STARTCHAR C043
ENCODING 67
SWIDTH 480 0
DWIDTH 9 0
BBX 9 16 0 -4
BITMAP
0000
0000
1e00
3000
6000
c000
c000
c000
c000
c000
6600
3c00
0000
0000
0000
0000
ENDCHAR
STARTCHAR C044
ENCODING 68
SWIDTH 480 0
DWIDTH 9 0
BBX 9 16 0 -4
BITMAP
0000
0000
3c00
6600
6300
6300
6300
6300
6300
6600
6c00
3800
0000
0000
0000
0000
ENDCHAR
STARTCHAR C045
ENCODING 69
SWIDTH 480 0
DWIDTH 9 0
BBX 9 16 0 -4
BITMAP
0000
0000
1f00
3000
6000
6000
7c00
6000
6000
6000
3000
1f00
0000
0000
0000
0000
ENDCHAR
STARTCHAR C046
ENCODING 70
SWIDTH 480 0
DWIDTH 9 0
BBX 9 16 0 -4
BITMAP
0000
0000
1f00
3000
6000
6000
7c00
6000
6000
6000
6000
6000
0000
0000
0000
0000
ENDCHAR
STARTCHAR C047
ENCODING 71
SWIDTH 480 0
DWIDTH 9 0
BBX 9 16 0 -4
BITMAP
0000
0000
1e00
3300
6100
c000
c000
ce00
c300
c300
6600
3c00
0000
0000
0000
0000
ENDCHAR
STARTCHAR C048
ENCODING 72
SWIDTH 480 0
DWIDTH 9 0
BBX 9 16 0 -4
BITMAP
0000
0000
6300
6300
6300
6700
7f00
7300
6300
6300
6300
6300
0000
0000
0000
0000
ENDCHAR
STARTCHAR C049
ENCODING 73
SWIDTH 480 0
DWIDTH 9 0
BBX 9 16 0 -4
BITMAP
0000
0000
1e00
7800
1800
1800
1800
1800
1800
1800
1e00
7800
0000
0000
0000
0000
ENDCHAR
STARTCHAR C04a
ENCODING 74
SWIDTH 480 0
DWIDTH 9 0
BBX 9 16 0 -4
BITMAP
0200
0100
7f00
8600
6600
0600
0600
0600
0600
c600
ce00
7c00
0000
0000
0000
0000
ENDCHAR
STARTCHAR C04b
ENCODING 75
SWIDTH 480 0
DWIDTH 9 0
BBX 9 16 0 -4
BITMAP
0000
0000
6300
6300
6600
6c00
7800
7e00
6300
6300
6300
6300
0000
0000
0000
0000
ENDCHAR
STARTCHAR C04c
ENCODING 76
SWIDTH 480 0
DWIDTH 9 0
BBX 9 16 0 -4
BITMAP
0000
0000
6000
6000
6000
6000
6000
6000
6000
6000
7000
3e00
0000
0000
0000
0000
ENDCHAR
STARTCHAR C04d
ENCODING 77
SWIDTH 480 0
DWIDTH 9 0
BBX 9 16 0 -4
BITMAP
0000
0000
6300
6300
7700
7f00
7f00
6b00
6300
6300
6300
6300
0000
0000
0000
0000
ENDCHAR
STARTCHAR C04e
ENCODING 78
SWIDTH 480 0
DWIDTH 9 0
BBX 9 16 0 -4
BITMAP
0000
0000
6300
6300
7300
7300
7b00
6f00
6700
6700
6300
6300
0000
0000
0000
0000
ENDCHAR
STARTCHAR C04f
ENCODING 79
SWIDTH 480 0
DWIDTH 9 0
BBX 9 16 0 -4
BITMAP
0000
0000
3c00
6600
c300
c300
c300
c300
c300
c300
6600
3c00
0000
0000
0000
0000
ENDCHAR
STARTCHAR C050
ENCODING 80
SWIDTH 480 0
DWIDTH 9 0
BBX 9 16 0 -4
BITMAP
0000
0000
7e00
6300
6300
6600
7c00
7000
6000
6000
6000
6000
0000
0000
0000
0000
ENDCHAR
STARTCHAR C051
ENCODING 81
SWIDTH 480 0
DWIDTH 9 0
BBX 9 16 0 -4
BITMAP
0000
0000
3c00
6600
c300
c300
c300
c300
c300
cb00
6600
3e00
0300
0000
0000
0000
ENDCHAR
STARTCHAR C052
ENCODING 82
SWIDTH 480 0
DWIDTH 9 0
BBX 9 16 0 -4
BITMAP
0000
0000
1e00
3300
6300
6600
7c00
7800
6c00
6600
6300
6300
0000
0000
0000
0000
ENDCHAR
STARTCHAR C053
ENCODING 83
SWIDTH 480 0
DWIDTH 9 0
BBX 9 16 0 -4
BITMAP
0000
0000
1e00
3300
6000
6000
3800
0e00
0300
0300
6300
3e00
0000
0000
0000
0000
ENDCHAR
STARTCHAR C054
ENCODING 84
SWIDTH 480 0
DWIDTH 9 0
BBX 9 16 0 -4
BITMAP
0000
0000
0f00
f800
1800
1800
1800
1800
1800
1800
1800
1800
0000
0000
0000
0000
ENDCHAR
STARTCHAR C055
ENCODING 85
SWIDTH 480 0
DWIDTH 9 0
BBX 9 16 0 -4
BITMAP
0000
0000
c600
c600
c600
c600
c600
c600
c600
c600
6600
3b00
0000
0000
0000
0000
ENDCHAR
STARTCHAR C056
ENCODING 86
SWIDTH 480 0
DWIDTH 9 0
BBX 9 16 0 -4
BITMAP
0000
0000
6300
6300
6300
6300
6300
3600
3600
1c00
1c00
0800
0000
0000
0000
0000
ENDCHAR
STARTCHAR C057
ENCODING 87
SWIDTH 480 0
DWIDTH 9 0
BBX 9 16 0 -4
BITMAP
0000
0000
6300
6300
6300
6300
6b00
7f00
7f00
7700
6300
6300
0000
0000
0000
0000
ENDCHAR
STARTCHAR C058
ENCODING 88
SWIDTH 480 0
DWIDTH 9 0
BBX 9 16 0 -4
BITMAP
0000
0000
6300
6300
3600
3600
1c00
1c00
3600
3600
6300
6300
0000
0000
0000
0000
ENDCHAR
STARTCHAR C059
ENCODING 89
SWIDTH 480 0
DWIDTH 9 0
BBX 9 16 0 -4
BITMAP
0000
0000
c300
c300
6600
3600
1c00
1c00
1800
1800
3000
3000
0000
0000
0000
0000
ENDCHAR
STARTCHAR C05a
ENCODING 90
SWIDTH 480 0
DWIDTH 9 0
BBX 9 16 0 -4
BITMAP
0000
0000
7f00
0700
0600
0c00
0c00
1800
1800
3000
7000
7f00
0000
0000
0000
0000
ENDCHAR
STARTCHAR C05b
ENCODING 91
SWIDTH 480 0
DWIDTH 9 0
BBX 9 16 0 -4
BITMAP
0000
0000
1e00
3000
3000
3000
3000
3000
3000
3000
3000
1e00
0000
0000
0000
0000
ENDCHAR
STARTCHAR C05c
ENCODING 92
SWIDTH 480 0
DWIDTH 9 0
BBX 9 16 0 -4
BITMAP
0000
0000
0000
8000
c000
6000
3000
1800
0c00
0600
0300
0100
0000
0000
0000
0000
ENDCHAR
STARTCHAR C05d
ENCODING 93
SWIDTH 480 0
DWIDTH 9 0
BBX 9 16 0 -4
BITMAP
0000
0000
7800
0c00
0c00
0c00
0c00
0c00
0c00
0c00
0c00
7800
0000
0000
0000
0000
ENDCHAR
STARTCHAR C05e
ENCODING 94
SWIDTH 480 0
DWIDTH 9 0
BBX 9 16 0 -4
BITMAP
0000
1800
3c00
6600
c300
0000
0000
0000
0000
0000
0000
0000
0000
0000
0000
0000
ENDCHAR
STARTCHAR C05f
ENCODING 95
SWIDTH 480 0
DWIDTH 9 0
BBX 9 16 0 -4
BITMAP
0000
0000
0000
0000
0000
0000
0000
0000
0000
0000
0000
0000
0000
ff00
0000
0000
ENDCHAR
STARTCHAR C060
ENCODING 96
SWIDTH 480 0
DWIDTH 9 0
BBX 9 16 0 -4
BITMAP
0000
1800
1800
1800
0c00
0000
0000
0000
0000
0000
0000
0000
0000
0000
0000
0000
ENDCHAR
STARTCHAR C061
ENCODING 97
SWIDTH 480 0
DWIDTH 9 0
BBX 9 16 0 -4
BITMAP
0000
0000
0000
0000
0000
3c00
6600
6600
6600
6600
6600
3b00
0000
0000
0000
0000
ENDCHAR
STARTCHAR C062
ENCODING 98
SWIDTH 480 0
DWIDTH 9 0
BBX 9 16 0 -4
BITMAP
0000
0000
6000
6000
6000
7c00
6600
6600
6600
6600
6c00
7800
0000
0000
0000
0000
ENDCHAR
STARTCHAR C063
ENCODING 99
SWIDTH 480 0
DWIDTH 9 0
BBX 9 16 0 -4
BITMAP
0000
0000
0000
0000
0000
1e00
3000
6000
c000
c000
6000
3e00
0000
0000
0000
0000
ENDCHAR
STARTCHAR C064
ENCODING 100
SWIDTH 480 0
DWIDTH 9 0
BBX 9 16 0 -4
BITMAP
0000
0000
0600
0600
0600
1e00
3600
6600
6600
6600
6600
3b00
0000
0000
0000
0000
ENDCHAR
STARTCHAR C065
ENCODING 101
SWIDTH 480 0
DWIDTH 9 0
BBX 9 16 0 -4
BITMAP
0000
0000
0000
0000
0000
1e00
3300
6300
7e00
6000
6300
3e00
0000
0000
0000
0000
ENDCHAR
STARTCHAR C066
ENCODING 102
SWIDTH 480 0
DWIDTH 9 0
BBX 9 16 0 -4
BITMAP
0000
0000
1c00
3600
3000
3000
7c00
3000
3000
3000
3000
3000
0000
0000
0000
0000
ENDCHAR
STARTCHAR C067
ENCODING 103
SWIDTH 480 0
DWIDTH 9 0
BBX 9 16 0 -4
BITMAP
0000
0000
0000
0000
0000
0000
1e00
3300
6300
6300
3f00
0300
0300
3300
1e00
0000
ENDCHAR
STARTCHAR C068
ENCODING 104
SWIDTH 480 0
DWIDTH 9 0
BBX 9 16 0 -4
BITMAP
0000
0000
6000
6000
6000
6000
7800
6c00
6600
6600
6600
6600
0000
0000
0000
0000
ENDCHAR
STARTCHAR C069
ENCODING 105
SWIDTH 480 0
DWIDTH 9 0
BBX 9 16 0 -4
BITMAP
0000
0000
1800
1800
0000
0000
1800
1800
1800
1800
1800
1800
0000
0000
0000
0000
ENDCHAR
STARTCHAR C06a
ENCODING 106
SWIDTH 480 0
DWIDTH 9 0
BBX 9 16 0 -4
BITMAP
0000
0000
0000
0600
0600
0000
0600
0600
0600
0600
0600
c600
ce00
7c00
0000
0000
ENDCHAR
STARTCHAR C06b
ENCODING 107
SWIDTH 480 0
DWIDTH 9 0
BBX 9 16 0 -4
BITMAP
0000
0000
6000
6000
6000
6600
6c00
7800
7c00
6600
6300
6300
0000
0000
0000
0000
ENDCHAR
STARTCHAR C06c
ENCODING 108
SWIDTH 480 0
DWIDTH 9 0
BBX 9 16 0 -4
BITMAP
0000
0000
1800
1800
1800
1800
1800
1800
1800
1800
1800
1800
0000
0000
0000
0000
ENDCHAR
STARTCHAR C06d
ENCODING 109
SWIDTH 480 0
DWIDTH 9 0
BBX 9 16 0 -4
BITMAP
0000
0000
0000
0000
0000
6600
ff00
db00
c300
c300
c300
c300
0000
0000
0000
0000
ENDCHAR
STARTCHAR C06e
ENCODING 110
SWIDTH 480 0
DWIDTH 9 0
BBX 9 16 0 -4
BITMAP
0000
0000
0000
0000
0000
dc00
7600
6300
6300
6300
6300
6300
0000
0000
0000
0000
ENDCHAR
STARTCHAR C06f
ENCODING 111
SWIDTH 480 0
DWIDTH 9 0
BBX 9 16 0 -4
BITMAP
0000
0000
0000
0000
0000
3e00
6300
6300
6300
6300
6300
3e00
0000
0000
0000
0000
ENDCHAR
STARTCHAR C070
ENCODING 112
SWIDTH 480 0
DWIDTH 9 0
BBX 9 16 0 -4
BITMAP
0000
0000
0000
0000
0000
0000
3e00
7300
6300
6600
7c00
6000
6000
6000
6000
6000
ENDCHAR
STARTCHAR C071
ENCODING 113
SWIDTH 480 0
DWIDTH 9 0
BBX 9 16 0 -4
BITMAP
0000
0000
0000
0000
0000
0000
3c00
6600
c600
c600
7e00
0600
0600
0600
0300
0000
ENDCHAR
STARTCHAR C072
ENCODING 114
SWIDTH 480 0
DWIDTH 9 0
BBX 9 16 0 -4
BITMAP
0000
0000
0000
0000
0000
3e00
7000
6000
6000
6000
6000
6000
0000
0000
0000
0000
ENDCHAR
STARTCHAR C073
ENCODING 115
SWIDTH 480 0
DWIDTH 9 0
BBX 9 16 0 -4
BITMAP
0000
0000
0000
0000
0000
1e00
3300
6000
3e00
0300
6300
3e00
0000
0000
0000
0000
ENDCHAR
STARTCHAR C074
ENCODING 116
SWIDTH 480 0
DWIDTH 9 0
BBX 9 16 0 -4
BITMAP
0000
0000
1800
1800
1800
1e00
7800
1800
1800
1800
1800
1800
0000
0000
0000
0000
ENDCHAR
STARTCHAR C075
ENCODING 117
SWIDTH 480 0
DWIDTH 9 0
BBX 9 16 0 -4
BITMAP
0000
0000
0000
0000
0000
c600
c600
c600
c600
c600
6600
3b00
0000
0000
0000
0000
ENDCHAR
STARTCHAR C076
ENCODING 118
SWIDTH 480 0
DWIDTH 9 0
BBX 9 16 0 -4
BITMAP
0000
0000
0000
0000
0000
6300
6300
3600
3600
1c00
1c00
0800
0000
0000
0000
0000
ENDCHAR
STARTCHAR C077
ENCODING 119
SWIDTH 480 0
DWIDTH 9 0
BBX 9 16 0 -4
BITMAP
0000
0000
0000
0000
0000
6300
6300
6300
6300
6b00
7f00
3600
0000
0000
0000
0000
ENDCHAR
STARTCHAR C078
ENCODING 120
SWIDTH 480 0
DWIDTH 9 0
BBX 9 16 0 -4
BITMAP
0000
0000
0000
0000
0000
6300
3600
3600
1c00
3600
3600
6300
0000
0000
0000
0000
ENDCHAR
STARTCHAR C079
ENCODING 121
SWIDTH 480 0
DWIDTH 9 0
BBX 9 16 0 -4
BITMAP
0000
0000
0000
0000
0000
6600
6600
6600
6600
3600
1c00
1800
3000
6000
0000
0000
ENDCHAR
STARTCHAR C07a
ENCODING 122
SWIDTH 480 0
DWIDTH 9 0
BBX 9 16 0 -4
BITMAP
0000
0000
0000
0000
0000
7f00
0300
0600
0c00
1800
3000
7f00
0000
0000
0000
0000
ENDCHAR
STARTCHAR C07b
ENCODING 123
SWIDTH 480 0
DWIDTH 9 0
BBX 9 16 0 -4
BITMAP
0000
0000
0e00
1800
1800
1000
3000
6000
3000
1000
1800
1800
0e00
0000
0000
0000
ENDCHAR
STARTCHAR C07c
ENCODING 124
SWIDTH 480 0
DWIDTH 9 0
BBX 9 16 0 -4
BITMAP
0000
0000
1800
1800
1800
1800
1800
0000
1800
1800
1800
1800
1800
0000
0000
0000
ENDCHAR
STARTCHAR C07d
ENCODING 125
SWIDTH 480 0
DWIDTH 9 0
BBX 9 16 0 -4
BITMAP
0000
0000
7000
1800
1800
0800
0c00
0600
0c00
0800
1800
1800
7000
0000
0000
0000
ENDCHAR
STARTCHAR C07e
ENCODING 126
SWIDTH 480 0
DWIDTH 9 0
BBX 9 16 0 -4
BITMAP
0000
0000
7300
ce00
0000
0000
0000
0000
0000
0000
0000
0000
0000
0000
0000
0000
ENDCHAR
STARTCHAR C07f
ENCODING 127
SWIDTH 480 0
DWIDTH 9 0
BBX 9 16 0 -4
BITMAP
0000
0000
0000
0000
0000
0800
1c00
1c00
3600
3600
7f00
0000
0000
0000
0000
0000
ENDCHAR
STARTCHAR C080
ENCODING 128
SWIDTH 480 0
DWIDTH 9 0
BBX 9 16 0 -4
BITMAP
0000
0000
0000
0000
0000
0000
0000
0000
0000
0000
0000
0000
0000
0000
0000
0000
ENDCHAR
STARTCHAR C081
ENCODING 129
SWIDTH 480 0
DWIDTH 9 0
BBX 9 16 0 -4
BITMAP
0000
0000
0000
0000
0000
0000
0000
0000
0000
0000
0000
0000
0000
0000
0000
0000
ENDCHAR
STARTCHAR C082
ENCODING 130
SWIDTH 480 0
DWIDTH 9 0
BBX 9 16 0 -4
BITMAP
0000
0000
0000
0000
0000
0000
0000
0000
0000
0000
0000
0000
0000
0000
0000
0000
ENDCHAR
STARTCHAR C083
ENCODING 131
SWIDTH 480 0
DWIDTH 9 0
BBX 9 16 0 -4
BITMAP
0000
0000
0000
0000
0000
0000
0000
0000
0000
0000
0000
0000
0000
0000
0000
0000
ENDCHAR
STARTCHAR C084
ENCODING 132
SWIDTH 480 0
DWIDTH 9 0
BBX 9 16 0 -4
BITMAP
0000
0000
0000
0000
0000
0000
0000
0000
0000
0000
0000
0000
0000
0000
0000
0000
ENDCHAR
STARTCHAR C085
ENCODING 133
SWIDTH 480 0
DWIDTH 9 0
BBX 9 16 0 -4
BITMAP
0000
0000
0000
0000
0000
0000
0000
0000
0000
0000
0000
0000
0000
0000
0000
0000
ENDCHAR
STARTCHAR C086
ENCODING 134
SWIDTH 480 0
DWIDTH 9 0
BBX 9 16 0 -4
BITMAP
0000
0000
0000
0000
0000
0000
0000
0000
0000
0000
0000
0000
0000
0000
0000
0000
ENDCHAR
STARTCHAR C087
ENCODING 135
SWIDTH 480 0
DWIDTH 9 0
BBX 9 16 0 -4
BITMAP
0000
0000
0000
0000
0000
0000
0000
0000
0000
0000
0000
0000
0000
0000
0000
0000
ENDCHAR
STARTCHAR C088
ENCODING 136
SWIDTH 480 0
DWIDTH 9 0
BBX 9 16 0 -4
BITMAP
0000
0000
0000
0000
0000
0000
0000
0000
0000
0000
0000
0000
0000
0000
0000
0000
ENDCHAR
STARTCHAR C089
ENCODING 137
SWIDTH 480 0
DWIDTH 9 0
BBX 9 16 0 -4
BITMAP
0000
0000
0000
0000
0000
0000
0000
0000
0000
0000
0000
0000
0000
0000
0000
0000
ENDCHAR
STARTCHAR C08a
ENCODING 138
SWIDTH 480 0
DWIDTH 9 0
BBX 9 16 0 -4
BITMAP
0000
0000
0000
0000
0000
0000
0000
0000
0000
0000
0000
0000
0000
0000
0000
0000
ENDCHAR
STARTCHAR C08b
ENCODING 139
SWIDTH 480 0
DWIDTH 9 0
BBX 9 16 0 -4
BITMAP
0000
0000
0000
0000
0000
0000
0000
0000
0000
0000
0000
0000
0000
0000
0000
0000
ENDCHAR
STARTCHAR C08c
ENCODING 140
SWIDTH 480 0
DWIDTH 9 0
BBX 9 16 0 -4
BITMAP
0000
0000
0000
0000
0000
0000
0000
0000
0000
0000
0000
0000
0000
0000
0000
0000
ENDCHAR
STARTCHAR C08d
ENCODING 141
SWIDTH 480 0
DWIDTH 9 0
BBX 9 16 0 -4
BITMAP
0000
0000
0000
0000
0000
0000
0000
0000
0000
0000
0000
0000
0000
0000
0000
0000
ENDCHAR
STARTCHAR C08e
ENCODING 142
SWIDTH 480 0
DWIDTH 9 0
BBX 9 16 0 -4
BITMAP
0000
0000
0000
0000
0000
0000
0000
0000
0000
0000
0000
0000
0000
0000
0000
0000
ENDCHAR
STARTCHAR C08f
ENCODING 143
SWIDTH 480 0
DWIDTH 9 0
BBX 9 16 0 -4
BITMAP
0000
0000
0000
0000
0000
0000
0000
0000
0000
0000
0000
0000
0000
0000
0000
0000
ENDCHAR
STARTCHAR C090
ENCODING 144
SWIDTH 480 0
DWIDTH 9 0
BBX 9 16 0 -4
BITMAP
0000
0000
0000
0000
0000
0000
0000
0000
0000
0000
0000
0000
0000
0000
0000
0000
ENDCHAR
STARTCHAR C091
ENCODING 145
SWIDTH 480 0
DWIDTH 9 0
BBX 9 16 0 -4
BITMAP
0000
0000
0000
0000
0000
0000
0000
0000
0000
0000
0000
0000
0000
0000
0000
0000
ENDCHAR
STARTCHAR C092
ENCODING 146
SWIDTH 480 0
DWIDTH 9 0
BBX 9 16 0 -4
BITMAP
0000
0000
0000
0000
0000
0000
0000
0000
0000
0000
0000
0000
0000
0000
0000
0000
ENDCHAR
STARTCHAR C093
ENCODING 147
SWIDTH 480 0
DWIDTH 9 0
BBX 9 16 0 -4
BITMAP
0000
0000
0000
0000
0000
0000
0000
0000
0000
0000
0000
0000
0000
0000
0000
0000
ENDCHAR
STARTCHAR C094
ENCODING 148
SWIDTH 480 0
DWIDTH 9 0
BBX 9 16 0 -4
BITMAP
0000
0000
0000
0000
0000
0000
0000
0000
0000
0000
0000
0000
0000
0000
0000
0000
ENDCHAR
STARTCHAR C095
ENCODING 149
SWIDTH 480 0
DWIDTH 9 0
BBX 9 16 0 -4
BITMAP
0000
0000
0000
0000
0000
0000
0000
0000
0000
0000
0000
0000
0000
0000
0000
0000
ENDCHAR
STARTCHAR C096
ENCODING 150
SWIDTH 480 0
DWIDTH 9 0
BBX 9 16 0 -4
BITMAP
0000
0000
0000
0000
0000
0000
0000
0000
0000
0000
0000
0000
0000
0000
0000
0000
ENDCHAR
STARTCHAR C097
ENCODING 151
SWIDTH 480 0
DWIDTH 9 0
BBX 9 16 0 -4
BITMAP
0000
0000
0000
0000
0000
0000
0000
0000
0000
0000
0000
0000
0000
0000
0000
0000
ENDCHAR
STARTCHAR C098
ENCODING 152
SWIDTH 480 0
DWIDTH 9 0
BBX 9 16 0 -4
BITMAP
0000
0000
0000
0000
0000
0000
0000
0000
0000
0000
0000
0000
0000
0000
0000
0000
ENDCHAR
STARTCHAR C099
ENCODING 153
SWIDTH 480 0
DWIDTH 9 0
BBX 9 16 0 -4
BITMAP
0000
0000
0000
0000
0000
0000
0000
0000
0000
0000
0000
0000
0000
0000
0000
0000
ENDCHAR
STARTCHAR C09a
ENCODING 154
SWIDTH 480 0
DWIDTH 9 0
BBX 9 16 0 -4
BITMAP
0000
0000
0000
0000
0000
0000
0000
0000
0000
0000
0000
0000
0000
0000
0000
0000
ENDCHAR
STARTCHAR C09b
ENCODING 155
SWIDTH 480 0
DWIDTH 9 0
BBX 9 16 0 -4
BITMAP
0000
0000
0000
0000
0000
0000
0000
0000
0000
0000
0000
0000
0000
0000
0000
0000
ENDCHAR
STARTCHAR C09c
ENCODING 156
SWIDTH 480 0
DWIDTH 9 0
BBX 9 16 0 -4
BITMAP
0000
0000
0000
0000
0000
0000
0000
0000
0000
0000
0000
0000
0000
0000
0000
0000
ENDCHAR
STARTCHAR C09d
ENCODING 157
SWIDTH 480 0
DWIDTH 9 0
BBX 9 16 0 -4
BITMAP
0000
0000
0000
0000
0000
0000
0000
0000
0000
0000
0000
0000
0000
0000
0000
0000
ENDCHAR
STARTCHAR C09e
ENCODING 158
SWIDTH 480 0
DWIDTH 9 0
BBX 9 16 0 -4
BITMAP
0000
0000
0000
0000
0000
0000
0000
0000
0000
0000
0000
0000
0000
0000
0000
0000
ENDCHAR
STARTCHAR C09f
ENCODING 159
SWIDTH 480 0
DWIDTH 9 0
BBX 9 16 0 -4
BITMAP
0000
0000
0000
0000
0000
0000
0000
0000
0000
0000
0000
0000
0000
0000
0000
0000
ENDCHAR
STARTCHAR C0a0
ENCODING 160
SWIDTH 480 0
DWIDTH 9 0
BBX 9 16 0 -4
BITMAP
0000
0000
0000
0000
0000
0000
0000
0000
0000
0000
0000
0000
0000
0000
0000
0000
ENDCHAR
STARTCHAR C0a1
ENCODING 161
SWIDTH 480 0
DWIDTH 9 0
BBX 9 16 0 -4
BITMAP
0000
0000
0c00
0c00
0000
1800
1800
1800
3800
3000
3000
3000
0000
0000
0000
0000
ENDCHAR
STARTCHAR C0a2
ENCODING 162
SWIDTH 480 0
DWIDTH 9 0
BBX 9 16 0 -4
BITMAP
0000
0000
1800
1800
7e00
db00
d800
d800
d800
db00
7e00
1800
1800
0000
0000
0000
ENDCHAR
STARTCHAR C0a3
ENCODING 163
SWIDTH 480 0
DWIDTH 9 0
BBX 9 16 0 -4
BITMAP
0000
3c00
6600
6000
6000
f000
6000
6000
6000
6300
fb00
6600
0000
0000
0000
0000
ENDCHAR
STARTCHAR C0a4
ENCODING 164
SWIDTH 480 0
DWIDTH 9 0
BBX 9 16 0 -4
BITMAP
0000
0000
0000
0000
0000
7e00
7e00
7e00
7e00
7e00
7e00
0000
0000
0000
0000
0000
ENDCHAR
STARTCHAR C0a5
ENCODING 165
SWIDTH 480 0
DWIDTH 9 0
BBX 9 16 0 -4
BITMAP
0000
6600
6600
6600
6600
3c00
1800
7e00
1800
3c00
1800
1800
0000
0000
0000
0000
ENDCHAR
STARTCHAR C0a6
ENCODING 166
SWIDTH 480 0
DWIDTH 9 0
BBX 9 16 0 -4
BITMAP
0000
0000
1800
1800
1800
1800
1800
0000
1800
1800
1800
1800
1800
0000
0000
0000
ENDCHAR
STARTCHAR C0a7
ENCODING 167
SWIDTH 480 0
DWIDTH 9 0
BBX 9 16 0 -4
BITMAP
0000
0000
3e00
6300
6300
3000
3e00
7b00
6f00
3e00
0600
6300
6300
3e00
0000
0000
ENDCHAR
STARTCHAR C0a8
ENCODING 168
SWIDTH 480 0
DWIDTH 9 0
BBX 9 16 0 -4
BITMAP
0000
6600
6600
6600
6600
2400
0000
0000
0000
0000
0000
0000
0000
0000
0000
0000
ENDCHAR
STARTCHAR C0a9
ENCODING 169
SWIDTH 480 0
DWIDTH 9 0
BBX 9 16 0 -4
BITMAP
0000
0000
0000
0000
0000
0000
0000
0000
0000
0000
0000
0000
0000
0000
0000
0000
ENDCHAR
STARTCHAR C0aa
ENCODING 170
SWIDTH 480 0
DWIDTH 9 0
BBX 9 16 0 -4
BITMAP
0000
3e00
6600
6600
3f00
0000
7f00
0000
0000
0000
0000
0000
0000
0000
0000
0000
ENDCHAR
STARTCHAR C0ab
ENCODING 171
SWIDTH 480 0
DWIDTH 9 0
BBX 9 16 0 -4
BITMAP
0000
0000
0000
0000
0000
3300
6600
cc00
6600
3300
0000
0000
0000
0000
0000
0000
ENDCHAR
STARTCHAR C0ac
ENCODING 172
SWIDTH 480 0
DWIDTH 9 0
BBX 9 16 0 -4
BITMAP
0000
0000
0000
0000
0000
0000
0000
7e00
0600
0600
0600
0000
0000
0000
0000
0000
ENDCHAR
STARTCHAR C0ad
ENCODING 173
SWIDTH 480 0
DWIDTH 9 0
BBX 9 16 0 -4
BITMAP
0000
0000
0000
0000
0000
0000
0000
0000
0000
0000
0000
0000
0000
0000
0000
0000
ENDCHAR
STARTCHAR C0ae
ENCODING 174
SWIDTH 480 0
DWIDTH 9 0
BBX 9 16 0 -4
BITMAP
0000
0000
0000
0000
0000
0000
0000
0000
0000
0000
0000
0000
0000
0000
0000
0000
ENDCHAR
STARTCHAR C0af
ENCODING 175
SWIDTH 480 0
DWIDTH 9 0
BBX 9 16 0 -4
BITMAP
0000
0000
0000
0000
0000
0000
0000
0000
0000
0000
0000
0000
0000
0000
0000
0000
ENDCHAR
STARTCHAR C0b0
ENCODING 176
SWIDTH 480 0
DWIDTH 9 0
BBX 9 16 0 -4
BITMAP
0000
0000
7000
d800
d800
7000
0000
0000
0000
0000
0000
0000
0000
0000
0000
0000
ENDCHAR
STARTCHAR C0b1
ENCODING 177
SWIDTH 480 0
DWIDTH 9 0
BBX 9 16 0 -4
BITMAP
0000
0000
0000
1800
1800
7e00
1800
1800
0000
0000
0000
ff00
0000
0000
0000
0000
ENDCHAR
STARTCHAR C0b2
ENCODING 178
SWIDTH 480 0
DWIDTH 9 0
BBX 9 16 0 -4
BITMAP
0000
0000
7000
d800
1800
3000
6000
f800
0000
0000
0000
0000
0000
0000
0000
0000
ENDCHAR
STARTCHAR C0b3
ENCODING 179
SWIDTH 480 0
DWIDTH 9 0
BBX 9 16 0 -4
BITMAP
0000
0000
c000
7800
6c00
6c00
6c00
6c00
0000
0000
0000
0000
0000
0000
0000
0000
ENDCHAR
STARTCHAR C0b4
ENCODING 180
SWIDTH 480 0
DWIDTH 9 0
BBX 9 16 0 -4
BITMAP
0000
0000
0000
0000
0000
0000
0000
0000
0000
0000
0000
0000
0000
0000
0000
0000
ENDCHAR
STARTCHAR C0b5
ENCODING 181
SWIDTH 480 0
DWIDTH 9 0
BBX 9 16 0 -4
BITMAP
0000
0000
0000
0000
0000
3300
3300
3300
3300
3300
3e00
3000
6000
0000
0000
0000
ENDCHAR
STARTCHAR C0b6
ENCODING 182
SWIDTH 480 0
DWIDTH 9 0
BBX 9 16 0 -4
BITMAP
0000
0000
7f00
db00
db00
db00
db00
7b00
1b00
1b00
1b00
1b00
0000
0000
0000
0000
ENDCHAR
STARTCHAR C0b7
ENCODING 183
SWIDTH 480 0
DWIDTH 9 0
BBX 9 16 0 -4
BITMAP
0000
0000
0000
0000
0000
0000
0000
1800
1800
0000
0000
0000
0000
0000
0000
0000
ENDCHAR
STARTCHAR C0b8
ENCODING 184
SWIDTH 480 0
DWIDTH 9 0
BBX 9 16 0 -4
BITMAP
0000
0000
0000
0000
0000
0000
0000
0000
0000
0000
1800
1800
1800
3000
0000
0000
ENDCHAR
STARTCHAR C0b9
ENCODING 185
SWIDTH 480 0
DWIDTH 9 0
BBX 9 16 0 -4
BITMAP
0000
0000
0000
0000
0000
0000
0000
0000
0000
0000
0000
0000
0000
0000
0000
0000
ENDCHAR
STARTCHAR C0ba
ENCODING 186
SWIDTH 480 0
DWIDTH 9 0
BBX 9 16 0 -4
BITMAP
0000
1c00
3600
3600
1c00
0000
3e00
0000
0000
0000
0000
0000
0000
0000
0000
0000
ENDCHAR
STARTCHAR C0bb
ENCODING 187
SWIDTH 480 0
DWIDTH 9 0
BBX 9 16 0 -4
BITMAP
0000
0000
0000
0000
0000
cc00
6600
3300
6600
cc00
0000
0000
0000
0000
0000
0000
ENDCHAR
STARTCHAR C0bc
ENCODING 188
SWIDTH 480 0
DWIDTH 9 0
BBX 9 16 0 -4
BITMAP
0000
3000
7000
3100
3300
3600
0c00
1800
3300
6b00
1b00
1f00
0300
0300
0000
0000
ENDCHAR
STARTCHAR C0bd
ENCODING 189
SWIDTH 480 0
DWIDTH 9 0
BBX 9 16 0 -4
BITMAP
0000
3000
7000
3100
3300
3600
0c00
1800
3000
6e00
1b00
0600
0c00
1f00
0000
0000
ENDCHAR
STARTCHAR C0be
ENCODING 190
SWIDTH 480 0
DWIDTH 9 0
BBX 9 16 0 -4
BITMAP
0000
0000
0000
0000
0000
0000
0000
0000
0000
0000
0000
0000
0000
0000
0000
0000
ENDCHAR
STARTCHAR C0bf
ENCODING 191
SWIDTH 480 0
DWIDTH 9 0
BBX 9 16 0 -4
BITMAP
0000
1800
1800
0000
1800
1800
1800
0c00
0600
0300
6300
3e00
0000
0000
0000
0000
ENDCHAR
STARTCHAR C0c0
ENCODING 192
SWIDTH 480 0
DWIDTH 9 0
BBX 9 16 0 -4
BITMAP
0000
0000
0000
0000
0000
0000
0000
0000
0000
0000
0000
0000
0000
0000
0000
0000
ENDCHAR
STARTCHAR C0c1
ENCODING 193
SWIDTH 480 0
DWIDTH 9 0
BBX 9 16 0 -4
BITMAP
0000
0000
0000
0000
0000
0000
0000
0000
0000
0000
0000
0000
0000
0000
0000
0000
ENDCHAR
STARTCHAR C0c2
ENCODING 194
SWIDTH 480 0
DWIDTH 9 0
BBX 9 16 0 -4
BITMAP
0000
0000
0000
0000
0000
0000
0000
0000
0000
0000
0000
0000
0000
0000
0000
0000
ENDCHAR
STARTCHAR C0c3
ENCODING 195
SWIDTH 480 0
DWIDTH 9 0
BBX 9 16 0 -4
BITMAP
0000
0000
0000
0000
0000
0000
0000
0000
0000
0000
0000
0000
0000
0000
0000
0000
ENDCHAR
STARTCHAR C0c4
ENCODING 196
SWIDTH 480 0
DWIDTH 9 0
BBX 9 16 0 -4
BITMAP
0000
6300
0000
1c00
3600
6300
6300
6300
7f00
6300
6300
6300
0000
0000
0000
0000
ENDCHAR
STARTCHAR C0c5
ENCODING 197
SWIDTH 480 0
DWIDTH 9 0
BBX 9 16 0 -4
BITMAP
1c00
3600
1c00
0000
1c00
3600
6300
6300
7f00
6300
6300
6300
0000
0000
0000
0000
ENDCHAR
STARTCHAR C0c6
ENCODING 198
SWIDTH 480 0
DWIDTH 9 0
BBX 9 16 0 -4
BITMAP
0000
0000
3f00
6c00
6c00
6c00
6c00
7f00
6c00
6c00
6c00
6f00
0000
0000
0000
0000
ENDCHAR
STARTCHAR C0c7
ENCODING 199
SWIDTH 480 0
DWIDTH 9 0
BBX 9 16 0 -4
BITMAP
0000
0000
3c00
6600
c000
c000
c000
c600
6600
3c00
1800
0c00
cc00
3800
0000
0000
ENDCHAR
STARTCHAR C0c8
ENCODING 200
SWIDTH 480 0
DWIDTH 9 0
BBX 9 16 0 -4
BITMAP
0000
0000
0000
0000
0000
0000
0000
0000
0000
0000
0000
0000
0000
0000
0000
0000
ENDCHAR
STARTCHAR C0c9
ENCODING 201
SWIDTH 480 0
DWIDTH 9 0
BBX 9 16 0 -4
BITMAP
0600
0c00
1800
0000
7f00
3000
3000
3e00
3000
3000
3000
7f00
0000
0000
0000
0000
ENDCHAR
STARTCHAR C0ca
ENCODING 202
SWIDTH 480 0
DWIDTH 9 0
BBX 9 16 0 -4
BITMAP
0000
0000
0000
0000
0000
0000
0000
0000
0000
0000
0000
0000
0000
0000
0000
0000
ENDCHAR
STARTCHAR C0cb
ENCODING 203
SWIDTH 480 0
DWIDTH 9 0
BBX 9 16 0 -4
BITMAP
0000
0000
0000
0000
0000
0000
0000
0000
0000
0000
0000
0000
0000
0000
0000
0000
ENDCHAR
STARTCHAR C0cc
ENCODING 204
SWIDTH 480 0
DWIDTH 9 0
BBX 9 16 0 -4
BITMAP
0000
0000
0000
0000
0000
0000
0000
0000
0000
0000
0000
0000
0000
0000
0000
0000
ENDCHAR
STARTCHAR C0cd
ENCODING 205
SWIDTH 480 0
DWIDTH 9 0
BBX 9 16 0 -4
BITMAP
0000
0000
0000
0000
0000
0000
0000
0000
0000
0000
0000
0000
0000
0000
0000
0000
ENDCHAR
STARTCHAR C0ce
ENCODING 206
SWIDTH 480 0
DWIDTH 9 0
BBX 9 16 0 -4
BITMAP
0000
0000
0000
0000
0000
0000
0000
0000
0000
0000
0000
0000
0000
0000
0000
0000
ENDCHAR
STARTCHAR C0cf
ENCODING 207
SWIDTH 480 0
DWIDTH 9 0
BBX 9 16 0 -4
BITMAP
0000
0000
0000
0000
0000
0000
0000
0000
0000
0000
0000
0000
0000
0000
0000
0000
ENDCHAR
STARTCHAR C0d0
ENCODING 208
SWIDTH 480 0
DWIDTH 9 0
BBX 9 16 0 -4
BITMAP
0000
0000
0000
0000
0000
0000
0000
0000
0000
0000
0000
0000
0000
0000
0000
0000
ENDCHAR
STARTCHAR C0d1
ENCODING 209
SWIDTH 480 0
DWIDTH 9 0
BBX 9 16 0 -4
BITMAP
ce00
7900
0000
6300
7300
7300
7b00
6f00
6700
6700
6300
6300
0000
0000
0000
0000
ENDCHAR
STARTCHAR C0d2
ENCODING 210
SWIDTH 480 0
DWIDTH 9 0
BBX 9 16 0 -4
BITMAP
0000
0000
0000
0000
0000
0000
0000
0000
0000
0000
0000
0000
0000
0000
0000
0000
ENDCHAR
STARTCHAR C0d3
ENCODING 211
SWIDTH 480 0
DWIDTH 9 0
BBX 9 16 0 -4
BITMAP
0000
0000
0000
0000
0000
0000
0000
0000
0000
0000
0000
0000
0000
0000
0000
0000
ENDCHAR
STARTCHAR C0d4
ENCODING 212
SWIDTH 480 0
DWIDTH 9 0
BBX 9 16 0 -4
BITMAP
0000
0000
0000
0000
0000
0000
0000
0000
0000
0000
0000
0000
0000
0000
0000
0000
ENDCHAR
STARTCHAR C0d5
ENCODING 213
SWIDTH 480 0
DWIDTH 9 0
BBX 9 16 0 -4
BITMAP
0000
0000
0000
0000
0000
0000
0000
0000
0000
0000
0000
0000
0000
0000
0000
0000
ENDCHAR
STARTCHAR C0d6
ENCODING 214
SWIDTH 480 0
DWIDTH 9 0
BBX 9 16 0 -4
BITMAP
6600
0000
3c00
6600
c300
c300
c300
c300
c300
c300
6600
3c00
0000
0000
0000
0000
ENDCHAR
STARTCHAR C0d7
ENCODING 215
SWIDTH 480 0
DWIDTH 9 0
BBX 9 16 0 -4
BITMAP
0000
0000
0000
0000
0000
6300
3600
3600
1c00
3600
3600
6300
0000
0000
0000
0000
ENDCHAR
STARTCHAR C0d8
ENCODING 216
SWIDTH 480 0
DWIDTH 9 0
BBX 9 16 0 -4
BITMAP
0000
0000
0000
0000
0000
0000
0000
0000
0000
0000
0000
0000
0000
0000
0000
0000
ENDCHAR
STARTCHAR C0d9
ENCODING 217
SWIDTH 480 0
DWIDTH 9 0
BBX 9 16 0 -4
BITMAP
0000
0000
0000
0000
0000
0000
0000
0000
0000
0000
0000
0000
0000
0000
0000
0000
ENDCHAR
STARTCHAR C0da
ENCODING 218
SWIDTH 480 0
DWIDTH 9 0
BBX 9 16 0 -4
BITMAP
0000
0000
0000
0000
0000
0000
0000
0000
0000
0000
0000
0000
0000
0000
0000
0000
ENDCHAR
STARTCHAR C0db
ENCODING 219
SWIDTH 480 0
DWIDTH 9 0
BBX 9 16 0 -4
BITMAP
0000
0000
0000
0000
0000
0000
0000
0000
0000
0000
0000
0000
0000
0000
0000
0000
ENDCHAR
STARTCHAR C0dc
ENCODING 220
SWIDTH 480 0
DWIDTH 9 0
BBX 9 16 0 -4
BITMAP
c600
0000
c600
c600
c600
c600
c600
c600
c600
c600
6600
3b00
0000
0000
0000
0000
ENDCHAR
STARTCHAR C0dd
ENCODING 221
SWIDTH 480 0
DWIDTH 9 0
BBX 9 16 0 -4
BITMAP
0000
0000
0000
0000
0000
0000
0000
0000
0000
0000
0000
0000
0000
0000
0000
0000
ENDCHAR
STARTCHAR C0de
ENCODING 222
SWIDTH 480 0
DWIDTH 9 0
BBX 9 16 0 -4
BITMAP
0000
0000
0000
0000
0000
0000
0000
0000
0000
0000
0000
0000
0000
0000
0000
0000
ENDCHAR
STARTCHAR C0df
ENCODING 223
SWIDTH 480 0
DWIDTH 9 0
BBX 9 16 0 -4
BITMAP
0000
0000
3c00
6600
6600
6c00
7800
6600
6600
6600
6c00
6800
0000
0000
0000
0000
ENDCHAR
STARTCHAR C0e0
ENCODING 224
SWIDTH 480 0
DWIDTH 9 0
BBX 9 16 0 -4
BITMAP
0000
3000
1800
0c00
0000
3c00
6600
6600
6600
6600
6600
3b00
0000
0000
0000
0000
ENDCHAR
STARTCHAR C0e1
ENCODING 225
SWIDTH 480 0
DWIDTH 9 0
BBX 9 16 0 -4
BITMAP
0000
0c00
1800
3000
0000
3c00
6600
6600
6600
6600
6600
3b00
0000
0000
0000
0000
ENDCHAR
STARTCHAR C0e2
ENCODING 226
SWIDTH 480 0
DWIDTH 9 0
BBX 9 16 0 -4
BITMAP
0000
1800
3c00
6600
0000
3c00
6600
6600
6600
6600
6600
3b00
0000
0000
0000
0000
ENDCHAR
STARTCHAR C0e3
ENCODING 227
SWIDTH 480 0
DWIDTH 9 0
BBX 9 16 0 -4
BITMAP
0000
0000
0000
0000
0000
0000
0000
0000
0000
0000
0000
0000
0000
0000
0000
0000
ENDCHAR
STARTCHAR C0e4
ENCODING 228
SWIDTH 480 0
DWIDTH 9 0
BBX 9 16 0 -4
BITMAP
0000
0000
0000
6600
0000
3c00
6600
6600
6600
6600
6600
3b00
0000
0000
0000
0000
ENDCHAR
STARTCHAR C0e5
ENCODING 229
SWIDTH 480 0
DWIDTH 9 0
BBX 9 16 0 -4
BITMAP
0000
1c00
3600
1c00
0000
3c00
6600
6600
6600
6600
6600
3b00
0000
0000
0000
0000
ENDCHAR
STARTCHAR C0e6
ENCODING 230
SWIDTH 480 0
DWIDTH 9 0
BBX 9 16 0 -4
BITMAP
0000
0000
0000
0000
6600
db00
1b00
7f00
d800
d800
df00
7600
0000
0000
0000
0000
ENDCHAR
STARTCHAR C0e7
ENCODING 231
SWIDTH 480 0
DWIDTH 9 0
BBX 9 16 0 -4
BITMAP
0000
0000
0000
0000
3e00
6300
6000
6000
6300
3e00
0c00
0600
3600
1c00
0000
0000
ENDCHAR
STARTCHAR C0e8
ENCODING 232
SWIDTH 480 0
DWIDTH 9 0
BBX 9 16 0 -4
BITMAP
0000
1800
0c00
0600
0000
1e00
3300
6300
7f00
6000
6300
3e00
0000
0000
0000
0000
ENDCHAR
STARTCHAR C0e9
ENCODING 233
SWIDTH 480 0
DWIDTH 9 0
BBX 9 16 0 -4
BITMAP
0000
1800
0c00
0600
0000
1e00
3300
6300
7f00
6000
6300
3e00
0000
0000
0000
0000
ENDCHAR
STARTCHAR C0ea
ENCODING 234
SWIDTH 480 0
DWIDTH 9 0
BBX 9 16 0 -4
BITMAP
0000
0c00
1e00
3300
0000
1e00
3300
6300
7f00
6000
6300
3e00
0000
0000
0000
0000
ENDCHAR
STARTCHAR C0eb
ENCODING 235
SWIDTH 480 0
DWIDTH 9 0
BBX 9 16 0 -4
BITMAP
0000
0000
3300
0000
0000
1e00
3300
6300
7f00
6000
6300
3e00
0000
0000
0000
0000
ENDCHAR
STARTCHAR C0ec
ENCODING 236
SWIDTH 480 0
DWIDTH 9 0
BBX 9 16 0 -4
BITMAP
0000
3000
1800
0c00
0000
0000
1800
1800
1800
1800
1800
1800
0000
0000
0000
0000
ENDCHAR
STARTCHAR C0ed
ENCODING 237
SWIDTH 480 0
DWIDTH 9 0
BBX 9 16 0 -4
BITMAP
0000
0c00
1800
3000
0000
1800
1800
1800
1800
1800
1800
1800
0000
0000
0000
0000
ENDCHAR
STARTCHAR C0ee
ENCODING 238
SWIDTH 480 0
DWIDTH 9 0
BBX 9 16 0 -4
BITMAP
0000
1800
3c00
6600
0000
0000
1800
1800
1800
1800
1800
1800
0000
0000
0000
0000
ENDCHAR
STARTCHAR C0ef
ENCODING 239
SWIDTH 480 0
DWIDTH 9 0
BBX 9 16 0 -4
BITMAP
0000
0000
6600
0000
0000
0000
1800
1800
1800
1800
1800
1800
0000
0000
0000
0000
ENDCHAR
STARTCHAR C0f0
ENCODING 240
SWIDTH 480 0
DWIDTH 9 0
BBX 9 16 0 -4
BITMAP
0000
0000
0000
0700
0c00
3c00
6600
6300
6300
6300
3600
1c00
0000
0000
0000
0000
ENDCHAR
STARTCHAR C0f1
ENCODING 241
SWIDTH 480 0
DWIDTH 9 0
BBX 9 16 0 -4
BITMAP
0000
0000
ce00
7300
0000
cc00
7600
6300
6300
6300
6300
6300
0000
0000
0000
0000
ENDCHAR
STARTCHAR C0f2
ENCODING 242
SWIDTH 480 0
DWIDTH 9 0
BBX 9 16 0 -4
BITMAP
0000
3000
1800
0c00
0000
3e00
6300
6300
6300
6300
6300
3e00
0000
0000
0000
0000
ENDCHAR
STARTCHAR C0f3
ENCODING 243
SWIDTH 480 0
DWIDTH 9 0
BBX 9 16 0 -4
BITMAP
0000
0600
0c00
1800
0000
3e00
6300
6300
6300
6300
6300
3e00
0000
0000
0000
0000
ENDCHAR
STARTCHAR C0f4
ENCODING 244
SWIDTH 480 0
DWIDTH 9 0
BBX 9 16 0 -4
BITMAP
0800
1c00
3600
6300
0000
3e00
6300
6300
6300
6300
6300
3e00
0000
0000
0000
0000
ENDCHAR
STARTCHAR C0f5
ENCODING 245
SWIDTH 480 0
DWIDTH 9 0
BBX 9 16 0 -4
BITMAP
0000
0000
0000
0000
0000
0000
0000
0000
0000
0000
0000
0000
0000
0000
0000
0000
ENDCHAR
STARTCHAR C0f6
ENCODING 246
SWIDTH 480 0
DWIDTH 9 0
BBX 9 16 0 -4
BITMAP
0000
0000
3600
0000
0000
3e00
6300
6300
6300
6300
6300
3e00
0000
0000
0000
0000
ENDCHAR
STARTCHAR C0f7
ENCODING 247
SWIDTH 480 0
DWIDTH 9 0
BBX 9 16 0 -4
BITMAP
0000
0000
0000
0000
1800
1800
0000
7e00
0000
1800
1800
0000
0000
0000
0000
0000
ENDCHAR
STARTCHAR C0f8
ENCODING 248
SWIDTH 480 0
DWIDTH 9 0
BBX 9 16 0 -4
BITMAP
0000
0000
0100
0300
3e00
6700
6f00
7b00
7300
3e00
3000
6000
c000
0000
0000
0000
ENDCHAR
STARTCHAR C0f9
ENCODING 249
SWIDTH 480 0
DWIDTH 9 0
BBX 9 16 0 -4
BITMAP
0000
6000
3000
1800
0000
c600
c600
c600
c600
c600
6600
3b00
0000
0000
0000
0000
ENDCHAR
STARTCHAR C0fa
ENCODING 250
SWIDTH 480 0
DWIDTH 9 0
BBX 9 16 0 -4
BITMAP
0000
0c00
1800
3000
0000
c600
c600
c600
c600
c600
6600
3b00
0000
0000
0000
0000
ENDCHAR
STARTCHAR C0fb
ENCODING 251
SWIDTH 480 0
DWIDTH 9 0
BBX 9 16 0 -4
BITMAP
1000
3800
6c00
c600
0000
c600
c600
c600
c600
c600
6600
3b00
0000
0000
0000
0000
ENDCHAR
STARTCHAR C0fc
ENCODING 252
SWIDTH 480 0
DWIDTH 9 0
BBX 9 16 0 -4
BITMAP
0000
0000
c600
0000
0000
c600
c600
c600
c600
c600
6600
3b00
0000
0000
0000
0000
ENDCHAR
STARTCHAR C0fd
ENCODING 253
SWIDTH 480 0
DWIDTH 9 0
BBX 9 16 0 -4
BITMAP
0000
0000
0000
0000
0000
0000
0000
0000
0000
0000
0000
0000
0000
0000
0000
0000
ENDCHAR
STARTCHAR C0fe
ENCODING 254
SWIDTH 480 0
DWIDTH 9 0
BBX 9 16 0 -4
BITMAP
0000
0000
0000
0000
0000
0000
0000
0000
0000
0000
0000
0000
0000
0000
0000
0000
ENDCHAR
STARTCHAR C0ff
ENCODING 255
SWIDTH 480 0
DWIDTH 9 0
BBX 9 16 0 -4
BITMAP
0000
0000
6600
0000
0000
6600
6600
6600
6600
3600
1c00
1800
3000
6000
0000
0000
ENDCHAR
ENDFONT
